# xmcd CD database file
#
# Track frame offsets:
#	150
#	24957
#	48675
#	68692
#	88698
#	118170
#	146025
#	173168
#	195328
#	215841
#
# Disc length: 3142 seconds
#
# Revision: 0
# Processed by: cddbd v1.5.2PL0 Copyright (c) Steve Scherf et al.
# Submitted via: Feurio! 1.68 - http://www.feurio.com
#
DISCID=900c440a
DTITLE=Lucinda Williams - Paradiso Nov 1 2006 Aud Mix 1
DYEAR=1900
DGENRE=
TTITLE0=Ventura
TTITLE1=Fruits of My Labour
TTITLE2=Pineola
TTITLE3=Drunken Angel
TTITLE4=Lake Charles
TTITLE5=Crescent City
TTITLE6=What If
TTITLE7=Righteously
TTITLE8=Still I Long For Your Kiss
TTITLE9=Changed the Locks
EXTD=
EXTT0=
EXTT1=
EXTT2=
EXTT3=
EXTT4=
EXTT5=
EXTT6=
EXTT7=
EXTT8=
EXTT9=
PLAYORDER=
